<svg xmlns="http://www.w3.org/2000/svg" viewBox="0 0 400 212.099"><path d="M180.747 25.801c-5.939 1.112-16.98 1.973-25.302 1.973l-4.367.001v1.894c0 1.726.036 1.893.404 1.893 1.529 0 3.098 1.45 3.586 3.311.618 2.359.99 62.758.429 69.533-.321 3.874-.875 4.789-3.176 5.241l-1.243.245v3.742l1.736-.162c2.261-.212 31.09-.212 33.351 0l1.736.162v-3.742l-1.3-.256c-2.298-.452-2.813-1.404-3.132-5.786-.253-3.486-.239-62.888.017-70.803l.207-6.406-.565-.59c-.312-.325-.619-.58-.684-.568a687.2 687.2 0 01-1.697.318m-74.277 6.651c-13.101.242-28.816.284-32.667.087l-3.524-.18v1.787c0 1.935.07 2.035 1.428 2.043 1.628.009 2.649 1.297 3.063 3.865.365 2.256.344 63.577-.022 65.869-.428 2.683-1.138 3.46-3.47 3.796l-.999.144v3.756l1.631-.155c1.802-.172 21.606-.208 33.929-.062 12.625.149 19.489-1.085 26.98-4.851 10.158-5.107 15.16-11.96 15.19-20.808.037-11.153-8.118-17.706-23.003-18.483l-2.649-.138 2.419-.924c14.185-5.414 20.681-14.282 17.689-24.148-2.816-9.284-11.407-12.052-35.995-11.598m1.151 4.974c4.876 2.306 8.108 9.167 8.108 17.213 0 8.529-3.407 12.775-11.1 13.838l-.894.123V36.552l1.308.137c.75.078 1.85.393 2.578.737m208.844-.585c-5.313 1.024-10.704 7.744-11.689 14.571-.132.907-.195 1.003-.594.892-13.208-3.684-28.1-.672-35.902 7.262-8.999 9.151-5.529 23.066 7.242 29.042l1.375.643-2.362 1.158c-8.729 4.277-12.581 9.698-11.453 16.119.89 5.073 4.097 8.578 9.953 10.882l1.994.784-1.638.147c-8.286.741-14.033 4.466-13.993 9.069.062 7.024 8.573 11.346 24.242 12.312 24.935 1.537 45.421-9.676 45.447-24.874.018-10.432-8.907-15.679-28.581-16.801-13.027-.744-16.12-1.055-18.836-1.894-3.105-.958-4.116-3.059-2.447-5.083l.615-.747 2.46.6c20.555 5.014 40.059-4.32 40.059-19.171 0-7.289-4.455-13.431-12.543-17.295l-2.268-1.083.83-.288c3.801-1.322 8.271-1.972 13.955-2.029l4.288-.044.414-1.046c.352-.888.393-1.327.271-2.91-.566-7.376-4.812-11.378-10.839-10.216m-92.162 14.012c-22.035 1.232-35.863 17.924-32.205 38.875 2.788 15.971 15.37 25.67 33.257 25.639 24.332-.044 39.437-18.927 33.581-41.981-3.491-13.749-17.678-23.526-32.844-22.635l-1.789.102m68.284 4.562c4.065 4.243 6.572 28.686 3.336 32.532-2.724 3.238-6.244-4.817-7.215-16.511-1.108-13.344.416-19.636 3.879-16.021m-68.334.467c5.911 3.873 11.112 44.366 6.82 53.102-4.503 9.164-11.813-15.222-11.824-39.442-.005-11.35 1.647-15.859 5.004-13.66M105.787 73.12c7.065 1.666 12.08 9.817 12.595 20.471.448 9.28-2.53 15.049-7.929 15.362-3.615.209-5.244-1.471-6.239-6.432-.547-2.727-.662-29.718-.127-29.714.212.002.976.143 1.7.313m175.64 46.496c1.314.173 4.8.455 7.748.628 14.513.852 18.29 2.182 18.27 6.433-.024 5.077-7.191 8.837-16.831 8.829-10.395-.008-16.507-6.037-13.826-13.638.433-1.226 1.598-2.815 1.962-2.676.159.061 1.364.252 2.677.424" fill="#fff"/><path d="M69.016 82.062v62.283h261.547V19.779H69.016v62.283m114.112-56.011l.565.59-.207 6.406c-.256 7.915-.27 67.317-.017 70.803.319 4.382.834 5.334 3.132 5.786l1.3.256v3.742l-1.736-.162c-2.261-.212-31.09-.212-33.351 0l-1.736.162v-3.742l1.243-.245c2.301-.452 2.855-1.367 3.176-5.241.561-6.775.189-67.174-.429-69.533-.488-1.861-2.057-3.311-3.586-3.311-.368 0-.404-.167-.404-1.893v-1.894l4.367-.001c9.302 0 19.65-.879 26.999-2.291.065-.012.372.243.684.568m-58.502 6.878c10.604 1.38 15.883 4.671 17.839 11.121 2.992 9.866-3.504 18.734-17.689 24.148l-2.419.924 2.649.138c14.885.777 23.04 7.33 23.003 18.483-.03 8.848-5.032 15.701-15.19 20.808-7.491 3.766-14.355 5-26.98 4.851-12.323-.146-32.127-.11-33.929.062l-1.631.155v-3.756l.999-.144c2.332-.336 3.042-1.113 3.47-3.796.366-2.292.387-63.613.022-65.869-.414-2.568-1.435-3.856-3.063-3.865-1.358-.008-1.428-.108-1.428-2.043v-1.787l3.524.18c3.851.197 19.566.155 32.667-.087 9.118-.168 14.226-.034 18.156.477m-20.891 19.647V68.6l.894-.123c7.693-1.063 11.1-5.309 11.1-13.838 0-9.57-4.611-17.315-10.686-17.95l-1.308-.137v16.024m216.759-15.677c4.623 1.088 8.341 8.517 6.539 13.068l-.414 1.046-4.288.044c-5.684.057-10.154.707-13.955 2.029l-.83.288 2.268 1.083c8.088 3.864 12.543 10.006 12.543 17.295 0 14.851-19.504 24.185-40.059 19.171l-2.46-.6-.615.747c-1.669 2.024-.658 4.125 2.447 5.083 2.716.839 5.809 1.15 18.836 1.894 21.707 1.238 30.771 7.795 28.174 20.38-3.264 15.817-31.069 25.712-55.876 19.884-18.274-4.293-17.862-18.32.587-19.97l1.638-.147-1.994-.784c-5.856-2.304-9.063-5.809-9.953-10.882-1.128-6.421 2.724-11.842 11.453-16.119l2.362-1.158-1.375-.643c-12.771-5.976-16.241-19.891-7.242-29.042 7.802-7.934 22.694-10.946 35.902-7.262.399.111.462.015.594-.892 1.301-9.014 8.975-16.1 15.718-14.513m-90.924 14.02c16.784 1.211 28.005 11.136 30.195 26.708 3.023 21.489-11.758 37.699-34.41 37.74-17.887.031-30.469-9.668-33.257-25.639-3.658-20.951 10.17-37.643 32.205-38.875l1.789-.102c.347-.02 1.912.055 3.478.168m60.284 4.079c-3.464 3.464-.724 29.504 3.476 33.038 2.808 2.362 4.159-1.256 3.919-10.498-.386-14.897-4.006-25.929-7.395-22.54m-67.989.73c-6.254 3.9-.677 52.18 6.338 54.859 3.311 1.265 4.886-5.294 4.326-18.013-.954-21.681-6.156-39.657-10.664-36.846m-118.07 31.121c.097 14.708.143 15.486 1.091 18.34 2.233 6.722 10.807 4.408 12.82-3.46 3.321-12.978-4.15-28.845-13.619-28.922-.368-.003-.38.553-.292 14.042m173.988 33.176c-2.522 3.513-2.012 8.794 1.128 11.663 7.891 7.212 28.493 3.594 28.534-5.011.02-4.251-3.757-5.581-18.27-6.433-4.888-.287-9.696-.772-10.425-1.052-.176-.067-.554.259-.967.833" fill="transparent"/></svg>