<svg id="svg" version="1.1" xmlns="http://www.w3.org/2000/svg" xmlns:xlink="http://www.w3.org/1999/xlink" width="400" height="212.09889531825357" viewBox="0, 0, 400,212.09889531825357"><g id="svgg"><path id="path0" d="M180.747 25.801 C 174.808 26.913,163.767 27.774,155.445 27.774 L 151.078 27.775 151.078 29.669 C 151.078 31.395,151.114 31.562,151.482 31.562 C 153.011 31.562,154.580 33.012,155.068 34.873 C 155.686 37.232,156.058 97.631,155.497 104.406 C 155.176 108.280,154.622 109.195,152.321 109.647 L 151.078 109.892 151.078 111.763 L 151.078 113.634 152.814 113.472 C 155.075 113.260,183.904 113.260,186.165 113.472 L 187.901 113.634 187.901 111.763 L 187.901 109.892 186.601 109.636 C 184.303 109.184,183.788 108.232,183.469 103.850 C 183.216 100.364,183.230 40.962,183.486 33.047 L 183.693 26.641 183.128 26.051 C 182.816 25.726,182.509 25.471,182.444 25.483 C 182.378 25.496,181.615 25.639,180.747 25.801 M106.470 32.452 C 93.369 32.694,77.654 32.736,73.803 32.539 L 70.279 32.359 70.279 34.146 C 70.279 36.081,70.349 36.181,71.707 36.189 C 73.335 36.198,74.356 37.486,74.770 40.054 C 75.135 42.310,75.114 103.631,74.748 105.923 C 74.320 108.606,73.610 109.383,71.278 109.719 L 70.279 109.863 70.279 111.741 L 70.279 113.619 71.910 113.464 C 73.712 113.292,93.516 113.256,105.839 113.402 C 118.464 113.551,125.328 112.317,132.819 108.551 C 142.977 103.444,147.979 96.591,148.009 87.743 C 148.046 76.590,139.891 70.037,125.006 69.260 L 122.357 69.122 124.776 68.198 C 138.961 62.784,145.457 53.916,142.465 44.050 C 139.649 34.766,131.058 31.998,106.470 32.452 M107.621 37.426 C 112.497 39.732,115.729 46.593,115.729 54.639 C 115.729 63.168,112.322 67.414,104.629 68.477 L 103.735 68.600 103.735 52.576 L 103.735 36.552 105.043 36.689 C 105.793 36.767,106.893 37.082,107.621 37.426 M316.465 36.841 C 311.152 37.865,305.761 44.585,304.776 51.412 C 304.644 52.319,304.581 52.415,304.182 52.304 C 290.974 48.620,276.082 51.632,268.280 59.566 C 259.281 68.717,262.751 82.632,275.522 88.608 L 276.897 89.251 274.535 90.409 C 265.806 94.686,261.954 100.107,263.082 106.528 C 263.972 111.601,267.179 115.106,273.035 117.410 L 275.029 118.194 273.391 118.341 C 265.105 119.082,259.358 122.807,259.398 127.410 C 259.460 134.434,267.971 138.756,283.640 139.722 C 308.575 141.259,329.061 130.046,329.087 114.848 C 329.105 104.416,320.180 99.169,300.506 98.047 C 287.479 97.303,284.386 96.992,281.670 96.153 C 278.565 95.195,277.554 93.094,279.223 91.070 L 279.838 90.323 282.298 90.923 C 302.853 95.937,322.357 86.603,322.357 71.752 C 322.357 64.463,317.902 58.321,309.814 54.457 L 307.546 53.374 308.376 53.086 C 312.177 51.764,316.647 51.114,322.331 51.057 L 326.619 51.013 327.033 49.967 C 327.385 49.079,327.426 48.640,327.304 47.057 C 326.738 39.681,322.492 35.679,316.465 36.841 M224.303 50.853 C 202.268 52.085,188.440 68.777,192.098 89.728 C 194.886 105.699,207.468 115.398,225.355 115.367 C 249.687 115.323,264.792 96.440,258.936 73.386 C 255.445 59.637,241.258 49.860,226.092 50.751 C 225.744 50.771,224.940 50.817,224.303 50.853 M292.587 55.415 C 296.652 59.658,299.159 84.101,295.923 87.947 C 293.199 91.185,289.679 83.130,288.708 71.436 C 287.600 58.092,289.124 51.800,292.587 55.415 M224.253 55.882 C 230.164 59.755,235.365 100.248,231.073 108.984 C 226.570 118.148,219.260 93.762,219.249 69.542 C 219.244 58.192,220.896 53.683,224.253 55.882 M105.787 73.120 C 112.852 74.786,117.867 82.937,118.382 93.591 C 118.830 102.871,115.852 108.640,110.453 108.953 C 106.838 109.162,105.209 107.482,104.214 102.521 C 103.667 99.794,103.552 72.803,104.087 72.807 C 104.299 72.809,105.063 72.950,105.787 73.120 M281.427 119.616 C 282.741 119.789,286.227 120.071,289.175 120.244 C 303.688 121.096,307.465 122.426,307.445 126.677 C 307.421 131.754,300.254 135.514,290.614 135.506 C 280.219 135.498,274.107 129.469,276.788 121.868 C 277.221 120.642,278.386 119.053,278.750 119.192 C 278.909 119.253,280.114 119.444,281.427 119.616 " stroke="none" fill="#fbfbfb" fill-rule="evenodd"></path><path id="path1" d="M69.016 82.062 L 69.016 144.345 199.790 144.345 L 330.563 144.345 330.563 82.062 L 330.563 19.779 199.790 19.779 L 69.016 19.779 69.016 82.062 M183.128 26.051 L 183.693 26.641 183.486 33.047 C 183.230 40.962,183.216 100.364,183.469 103.850 C 183.788 108.232,184.303 109.184,186.601 109.636 L 187.901 109.892 187.901 111.763 L 187.901 113.634 186.165 113.472 C 183.904 113.260,155.075 113.260,152.814 113.472 L 151.078 113.634 151.078 111.763 L 151.078 109.892 152.321 109.647 C 154.622 109.195,155.176 108.280,155.497 104.406 C 156.058 97.631,155.686 37.232,155.068 34.873 C 154.580 33.012,153.011 31.562,151.482 31.562 C 151.114 31.562,151.078 31.395,151.078 29.669 L 151.078 27.775 155.445 27.774 C 164.747 27.774,175.095 26.895,182.444 25.483 C 182.509 25.471,182.816 25.726,183.128 26.051 M124.626 32.929 C 135.230 34.309,140.509 37.600,142.465 44.050 C 145.457 53.916,138.961 62.784,124.776 68.198 L 122.357 69.122 125.006 69.260 C 139.891 70.037,148.046 76.590,148.009 87.743 C 147.979 96.591,142.977 103.444,132.819 108.551 C 125.328 112.317,118.464 113.551,105.839 113.402 C 93.516 113.256,73.712 113.292,71.910 113.464 L 70.279 113.619 70.279 111.741 L 70.279 109.863 71.278 109.719 C 73.610 109.383,74.320 108.606,74.748 105.923 C 75.114 103.631,75.135 42.310,74.770 40.054 C 74.356 37.486,73.335 36.198,71.707 36.189 C 70.349 36.181,70.279 36.081,70.279 34.146 L 70.279 32.359 73.803 32.539 C 77.654 32.736,93.369 32.694,106.470 32.452 C 115.588 32.284,120.696 32.418,124.626 32.929 M103.735 52.576 L 103.735 68.600 104.629 68.477 C 112.322 67.414,115.729 63.168,115.729 54.639 C 115.729 45.069,111.118 37.324,105.043 36.689 L 103.735 36.552 103.735 52.576 M320.494 36.899 C 325.117 37.987,328.835 45.416,327.033 49.967 L 326.619 51.013 322.331 51.057 C 316.647 51.114,312.177 51.764,308.376 53.086 L 307.546 53.374 309.814 54.457 C 317.902 58.321,322.357 64.463,322.357 71.752 C 322.357 86.603,302.853 95.937,282.298 90.923 L 279.838 90.323 279.223 91.070 C 277.554 93.094,278.565 95.195,281.670 96.153 C 284.386 96.992,287.479 97.303,300.506 98.047 C 322.213 99.285,331.277 105.842,328.680 118.427 C 325.416 134.244,297.611 144.139,272.804 138.311 C 254.530 134.018,254.942 119.991,273.391 118.341 L 275.029 118.194 273.035 117.410 C 267.179 115.106,263.972 111.601,263.082 106.528 C 261.954 100.107,265.806 94.686,274.535 90.409 L 276.897 89.251 275.522 88.608 C 262.751 82.632,259.281 68.717,268.280 59.566 C 276.082 51.632,290.974 48.620,304.182 52.304 C 304.581 52.415,304.644 52.319,304.776 51.412 C 306.077 42.398,313.751 35.312,320.494 36.899 M229.570 50.919 C 246.354 52.130,257.575 62.055,259.765 77.627 C 262.788 99.116,248.007 115.326,225.355 115.367 C 207.468 115.398,194.886 105.699,192.098 89.728 C 188.440 68.777,202.268 52.085,224.303 50.853 C 224.940 50.817,225.744 50.771,226.092 50.751 C 226.439 50.731,228.004 50.806,229.570 50.919 M289.854 54.998 C 286.390 58.462,289.130 84.502,293.330 88.036 C 296.138 90.398,297.489 86.780,297.249 77.538 C 296.863 62.641,293.243 51.609,289.854 54.998 M221.865 55.728 C 215.611 59.628,221.188 107.908,228.203 110.587 C 231.514 111.852,233.089 105.293,232.529 92.574 C 231.575 70.893,226.373 52.917,221.865 55.728 M103.795 86.849 C 103.892 101.557,103.938 102.335,104.886 105.189 C 107.119 111.911,115.693 109.597,117.706 101.729 C 121.027 88.751,113.556 72.884,104.087 72.807 C 103.719 72.804,103.707 73.360,103.795 86.849 M277.783 120.025 C 275.261 123.538,275.771 128.819,278.911 131.688 C 286.802 138.900,307.404 135.282,307.445 126.677 C 307.465 122.426,303.688 121.096,289.175 120.244 C 284.287 119.957,279.479 119.472,278.750 119.192 C 278.574 119.125,278.196 119.451,277.783 120.025 " stroke="none" fill="#1c1c1c" fill-rule="evenodd"></path></g></svg>